<svg width="14" height="14" viewBox="0 0 14 14" fill="#9898B3" xmlns="http://www.w3.org/2000/svg">
<path d="M13.3905 0.710001C13.0005 0.320001 12.3705 0.320001 11.9805 0.710001L7.09055 5.59L2.20055 0.700001C1.81055 0.310001 1.18055 0.310001 0.790547 0.700001C0.400547 1.09 0.400547 1.72 0.790547 2.11L5.68055 7L0.790547 11.89C0.400547 12.28 0.400547 12.91 0.790547 13.3C1.18055 13.69 1.81055 13.69 2.20055 13.3L7.09055 8.41L11.9805 13.3C12.3705 13.69 13.0005 13.69 13.3905 13.3C13.7805 12.91 13.7805 12.28 13.3905 11.89L8.50055 7L13.3905 2.11C13.7705 1.73 13.7705 1.09 13.3905 0.710001Z" />
</svg>
